<?xml version="1.0" encoding="UTF-8"?>
<svg width="200px" height="95px" viewBox="0 0 200 95" version="1.1" xmlns="http://www.w3.org/2000/svg" xmlns:xlink="http://www.w3.org/1999/xlink">
    <!-- Generator: Sketch 52.6 (67491) - http://www.bohemiancoding.com/sketch -->
    <title>Group 8</title>
    <desc>Created with Sketch.</desc>
    <defs>
        <rect id="path-1" x="0.387475919" y="0.5" width="54" height="94"></rect>
    </defs>
    <g id="Page-1" stroke="none" stroke-width="1" fill="none" fill-rule="evenodd">
        <g id="active" transform="translate(-425.000000, -253.000000)">
            <g id="Group-6" transform="translate(329.000000, 252.000000)">
                <g id="v10-b">
                    <g id="Group-8" transform="translate(96.000000, 1.000000)">
                        <g id="Group-7" transform="translate(53.000000, 0.000000)">
                            <g id="Clipped" transform="translate(0.612524, 0.500000)">
                                <mask id="mask-2" fill="white">
                                    <use xlink:href="#path-1"></use>
                                </mask>
                                <g id="Rectangle"></g>
                                <g id="Group" mask="url(#mask-2)" fill="#33A2AE">
                                    <g transform="translate(-34.612524, -50.500000)" id="Path">
                                        <path d="M90.4152518,117.13 C90.218433,117.130241 90.0293168,117.038221 89.8882014,116.873548 L35.0179856,51.0167742 C34.8761989,50.8468097 34.7965291,50.6161611 34.7965291,50.3756452 C34.7965291,50.1351292 34.8761989,49.9044806 35.0179856,49.7345161 C35.1595958,49.5643397 35.3517664,49.4687178 35.5521583,49.4687178 C35.7525502,49.4687178 35.9447208,49.5643397 36.0863309,49.7345161 L90.9565468,115.574194 C91.1789413,115.833563 91.2465773,116.229775 91.127087,116.573217 C91.0075966,116.91666 90.7252836,117.13748 90.4152518,117.13 Z"></path>
                                        <path d="M90.4152518,130.875806 C90.2153701,130.87743 90.0241195,130.778167 89.8882014,130.602258 L29.2916547,57.8896774 C28.9947335,57.5298658 28.9947335,56.9501342 29.2916547,56.5903226 C29.5972889,56.2514401 30.0686104,56.2514401 30.3742446,56.5903226 L90.9565468,129.32 C91.0983335,129.489964 91.1780033,129.720613 91.1780033,129.961129 C91.1780033,130.201645 91.0983335,130.432294 90.9565468,130.602258 C90.8162357,130.780817 90.6197195,130.880129 90.4152518,130.875806 Z"></path>
                                        <path d="M91.056259,145.322581 C90.8594402,145.322822 90.670324,145.230802 90.5292086,145.066129 L23.5795683,64.7112903 C23.2972199,64.3444596 23.2972199,63.7787662 23.5795683,63.4119355 C23.8793544,63.0555624 24.3623722,63.0555624 24.6621583,63.4119355 L91.6117986,143.766774 C91.7535853,143.936739 91.8332551,144.167387 91.8332551,144.407903 C91.8332551,144.648419 91.7535853,144.879068 91.6117986,145.049032 C91.4651439,145.226784 91.2646689,145.325498 91.056259,145.322581 Z"></path>
                                        <path d="M81.298705,147.408387 C81.0945762,147.410623 80.8987274,147.311649 80.7574101,147.134839 L17.8532374,71.6183871 C17.558222,71.2643013 17.558222,70.6902148 17.8532374,70.336129 C18.1482528,69.9820432 18.6265673,69.9820432 18.9215827,70.336129 L81.84,145.852581 C82.0480431,146.1178 82.1067042,146.50505 81.9897554,146.841187 C81.8728066,147.177325 81.6021136,147.399504 81.298705,147.408387 Z"></path>
                                        <path d="M67.5241727,144.604516 C67.3230001,144.605615 67.1291845,144.51379 66.9828777,144.348065 L12.1269065,78.4912903 C11.8318911,78.1372045 11.8318911,77.563118 12.1269065,77.2090323 C12.4219219,76.8549465 12.9002364,76.8549465 13.1952518,77.2090323 L68.0654676,143.04871 C68.3623888,143.408521 68.3623888,143.988253 68.0654676,144.348065 C67.9191609,144.51379 67.7253452,144.605615 67.5241727,144.604516 Z"></path>
                                        <path d="M61.7978417,151.477419 C61.6010229,151.47766 61.4119067,151.38564 61.2707914,151.220968 L6.40057554,85.3641935 C6.10556021,85.0101077 6.10556025,84.4360213 6.40057563,84.0819356 C6.69559101,83.7278498 7.17390543,83.7278498 7.46892086,84.0819355 L62.3391367,149.921613 C62.6360578,150.281425 62.6360578,150.861156 62.3391367,151.220968 C62.1928299,151.386693 61.9990143,151.478518 61.7978417,151.477419 Z"></path>
                                        <path d="M56.028777,158.350323 C55.8319582,158.350564 55.642842,158.258544 55.5017266,158.093871 L0.674244604,92.3225806 C0.379229189,91.9684949 0.379229189,91.3944084 0.674244604,91.0403226 C0.969260019,90.6862368 1.44757451,90.6862368 1.74258993,91.0403226 L56.6128058,156.88 C56.8352003,157.139369 56.9028363,157.535581 56.783346,157.879024 C56.6638556,158.222467 56.3815426,158.443286 56.0715108,158.435806 L56.028777,158.350323 Z"></path>
                                        <path d="M130.912662,68.523871 C130.715843,68.5241119 130.526727,68.432092 130.385612,68.2674194 L75.5153957,2.41064516 C75.373609,2.24068066 75.2939392,2.01003211 75.2939392,1.76951613 C75.2939392,1.52900014 75.373609,1.29835159 75.5153957,1.1283871 C75.6570058,0.958210693 75.8491764,0.86258875 76.0495683,0.86258875 C76.2499602,0.86258875 76.4421308,0.958210693 76.583741,1.1283871 L131.52518,66.9680645 C131.747574,67.227434 131.81521,67.6236456 131.69572,67.9670884 C131.57623,68.3105312 131.293917,68.5313505 130.983885,68.523871 L130.912662,68.523871 Z"></path>
                                        <path d="M125.186331,75.3967742 C124.986449,75.3983976 124.795199,75.2991352 124.659281,75.1232258 L69.7890647,9.28354839 C69.647278,9.11358389 69.5676082,8.88293534 69.5676082,8.64241935 C69.5676082,8.40190337 69.647278,8.17125482 69.7890647,8.00129032 C69.9306749,7.83111392 70.1228455,7.73549198 70.3232374,7.73549198 C70.5236293,7.73549198 70.7157999,7.83111392 70.8574101,8.00129032 L125.727626,73.8409677 C125.869413,74.0109322 125.949082,74.2415808 125.949082,74.4820968 C125.949082,74.7226128 125.869413,74.9532613 125.727626,75.1232258 C125.587315,75.301785 125.390799,75.4010963 125.186331,75.3967742 Z"></path>
                                        <path d="M119.474245,82.2696774 C119.269777,82.2739995 119.073261,82.1746883 118.93295,81.996129 L64.0627338,16.1564516 C63.7658127,15.79664 63.7658127,15.2169084 64.0627338,14.8570968 C64.368368,14.5182143 64.8396895,14.5182143 65.1453237,14.8570968 L120.001295,80.713871 C120.143082,80.8838355 120.222751,81.114484 120.222751,81.355 C120.222751,81.595516 120.143082,81.8261645 120.001295,81.996129 C119.865377,82.1720384 119.674126,82.2713008 119.474245,82.2696774 Z"></path>
                                        <path d="M113.747914,89.1425806 C113.543446,89.1469027 113.34693,89.0475915 113.206619,88.8690323 L58.3364029,23.0293548 C58.0540545,22.6625241 58.0540545,22.0968308 58.3364029,21.73 C58.6361889,21.3736269 59.1192068,21.3736269 59.4189928,21.73 L114.274964,87.5867742 C114.416751,87.7567387 114.496421,87.9873872 114.496421,88.2279032 C114.496421,88.4684192 114.416751,88.6990678 114.274964,88.8690323 C114.139046,89.0449416 113.947795,89.144204 113.747914,89.1425806 Z"></path>
                                        <path d="M108.021583,96.0154839 C107.819033,96.0085638 107.625959,95.910992 107.480288,95.7419355 L52.6243165,29.8851613 C52.4825298,29.7151968 52.40286,29.4845482 52.40286,29.2440323 C52.40286,29.0035163 52.4825298,28.7728677 52.6243165,28.6029032 C52.7659267,28.4327268 52.9580973,28.3371049 53.1584892,28.3371049 C53.3588811,28.3371049 53.5510517,28.4327268 53.6926619,28.6029032 L108.562878,94.4596774 C108.850514,94.8173858 108.850514,95.3842271 108.562878,95.7419355 C108.417207,95.910992 108.224133,96.0085638 108.021583,96.0154839 Z"></path>
                                        <path d="M102.295252,102.87129 C102.094079,102.872389 101.900264,102.780564 101.753957,102.614839 L46.8979856,36.7580645 C46.7561989,36.5881 46.6765291,36.3574515 46.6765291,36.1169355 C46.6765291,35.8764195 46.7561989,35.6457709 46.8979856,35.4758065 C47.0395958,35.30563 47.2317664,35.2100081 47.4321583,35.2100081 C47.6325502,35.2100081 47.8247208,35.30563 47.9663309,35.4758065 L102.836547,101.315484 C103.133468,101.675296 103.133468,102.255027 102.836547,102.614839 C102.69024,102.780564 102.496424,102.872389 102.295252,102.87129 Z"></path>
                                        <path d="M96.5689209,109.744194 C96.372102,109.744435 96.1829859,109.652415 96.0418705,109.487742 L41.1716547,43.6309677 C41.029868,43.4610032 40.9501981,43.2303547 40.9501981,42.9898387 C40.9501981,42.7493227 41.029868,42.5186742 41.1716547,42.3487097 C41.3132648,42.1785333 41.5054354,42.0829113 41.7058273,42.0829113 C41.9062192,42.0829113 42.0983898,42.1785333 42.24,42.3487097 L97.1102158,108.188387 C97.3326103,108.447757 97.4002464,108.843968 97.280756,109.187411 C97.1612657,109.530854 96.8789527,109.751673 96.5689209,109.744194 Z"></path>
                                    </g>
                                </g>
                            </g>
                            <g id="Group-4" transform="translate(101.500000, 41.500000) scale(-1, 1) translate(-101.500000, -41.500000) translate(56.000000, 0.000000)">
                                <path d="M89.43,33.23 L88.62,33.23 C87.96,33.23 87.3,33.23 86.64,33.23 C85.965,33.23 85.305,33.23 84.645,33.23 L83.835,33.23 C83.13,33.23 82.425,33.11 81.735,33.005 L81.225,32.93 L80.955,32.93 L80.19,32.795 L79.485,32.66 C79.335,32.66 79.185,32.66 79.035,32.57 L78.42,32.435 L77.715,32.27 L76.62,31.97 L75.99,31.79 C75.36,31.595 74.73,31.385 74.115,31.16 L73.29,30.845 C72.24,30.44 71.235,29.975 70.29,29.48 L69.645,29.135 C69.495,29.135 69.36,28.985 69.21,28.91 L68.565,28.55 L67.635,27.995 L67.155,27.695 L66.33,27.155 L65.775,26.765 C64.2857659,25.728145 62.8813396,24.5745091 61.575,23.315 L60.945,22.715 L60.345,22.085 C60.135,21.875 59.94,21.665 59.745,21.44 C58.8635421,20.4879491 58.0371957,19.4863172 57.27,18.44 L56.79,17.765 L56.325,17.09 L55.74,16.175 C55.635,16.01 55.545,15.845 55.44,15.695 C55.335,15.545 55.17,15.215 55.02,14.975 L54.63,14.255 C54.36,13.775 54.12,13.28 53.88,12.755 C53.64,12.23 53.415,11.75 53.19,11.255 L52.965,10.7 C52.83,10.37 52.695,10.04 52.575,9.695 C52.455,9.35 52.38,9.185 52.29,8.915 L52.02,8.12 C51.93,7.865 51.855,7.595 51.78,7.325 C51.705,7.055 51.615,6.785 51.54,6.515 L51.36,5.795 C51.3651667,5.71508342 51.3651667,5.63491658 51.36,5.555 C51.36,5.33 51.255,5.09 51.21,4.865 L51,3.995 C51,3.71 50.895,3.425 50.85,3.155 C50.7,2.3 50.595,1.46 50.505,0.59 L0.615,0.59 C1.67632385,26.1803226 14.100859,49.9623899 34.5,65.45 C34.695,65.615 34.905,65.765 35.115,65.915 C40.3019854,69.8056005 45.9127034,73.0965508 51.84,75.725 C52.0138752,75.7908895 52.1841165,75.8659959 52.35,75.95 C59.7901749,79.1865498 67.6546574,81.3433475 75.705,82.355 L76.245,82.355 C79.7048153,82.7655855 83.1859073,82.9709449 86.67,82.97 C88.035,82.97 89.385,82.97 90.735,82.88 L90.735,33.11 L89.43,33.23 Z" id="Path" fill="#AED9DF"></path>
                                <path d="M37.035,0.59 C37.995,1.61 45.135,10.4 37.035,41.885 C34.305,52.535 34.14,60.29 35.115,65.885 C34.905,65.735 34.695,65.585 34.5,65.42 C33.6,59.78 33.84,52.085 36.51,41.72 C40.905,24.695 40.695,14.48 39.735,8.93 C38.715,2.93 36.615,0.89 36.6,0.86 L36.885,0.56 L36.96,0.47 L37.035,0.59 Z" id="Path" fill="#FFFFFF"></path>
                                <path d="M76.77,79.355 C76.56,80.405 76.38,81.44 76.215,82.355 L75.675,82.355 C75.84,81.35 76.02,80.315 76.245,79.235 C78.36,68.465 78.96,59.345 77.955,52.85 C77.085,47.33 75.105,43.85 72.345,43.175 C67.575,41.945 61.71,48.905 58.11,60.11 C56.480889,65.4951746 54.5477875,70.7836598 52.32,75.95 C52.1541165,75.8659959 51.9838752,75.7908895 51.81,75.725 C54.0420654,70.5808069 55.9752818,65.312041 57.6,59.945 C61.29,48.44 67.41,41.33 72.48,42.635 C77.55,43.94 81.705,54.35 76.77,79.355 Z" id="Path" fill="#FFFFFF"></path>
                            </g>
                        </g>
                        <path d="M20,26.9540013 C22.7597639,26.9540013 27.8322245,26.9718973 30.3990234,24.4393749 C33.2459879,21.6304281 36.4463135,13.4839698 40,1.77635684e-15 L0,1.77635684e-15 C3.21660025,13.5071763 6.14529828,21.7158528 8.7860941,24.6260296 C11.6067027,27.7343615 16.9425528,26.9540013 20,26.9540013 Z" id="Oval" fill="#D6EFF1"></path>
                    </g>
                </g>
            </g>
        </g>
    </g>
</svg>