<?xml version="1.0" encoding="UTF-8"?>
<svg width="67px" height="56px" viewBox="0 0 67 56" version="1.1" xmlns="http://www.w3.org/2000/svg" xmlns:xlink="http://www.w3.org/1999/xlink">
    <!-- Generator: Sketch 52.6 (67491) - http://www.bohemiancoding.com/sketch -->
    <title>Group 4</title>
    <desc>Created with Sketch.</desc>
    <g id="Page-1" stroke="none" stroke-width="1" fill="none" fill-rule="evenodd">
        <g id="active" transform="translate(-329.000000, -426.000000)" fill="#AED9DF">
            <g id="Group-6" transform="translate(329.000000, 252.000000)">
                <g id="v10-b">
                    <g id="Group-4" transform="translate(33.500000, 202.000000) scale(-1, -1) translate(-33.500000, -202.000000) translate(0.000000, 174.000000)">
                        <path d="M66.0297936,22.1879088 L65.4275965,22.1879088 C64.9369174,22.1879088 64.4462383,22.1879088 63.9555593,22.1879088 C63.4537284,22.1879088 62.9630493,22.1879088 62.4723702,22.1879088 L61.8701731,22.1879088 C61.3460386,22.1879088 60.8219041,22.1063356 60.3089214,22.0349591 L59.9297603,21.9839758 L59.729028,21.9839758 L59.1602863,21.892206 L58.6361518,21.8004361 C58.5246338,21.8004361 58.4131158,21.8004361 58.3015979,21.7392562 L57.8443742,21.6474864 L57.3202397,21.5353233 L56.5061585,21.3313903 L56.037783,21.2090305 C55.5694075,21.076474 55.101032,20.933721 54.6438083,20.7807712 L54.0304594,20.5666416 C53.2498336,20.291332 52.5026631,19.9752359 51.8000999,19.6387465 L51.3205726,19.4042236 C51.2090546,19.4042236 51.1086884,19.3022571 50.9971704,19.2512738 L50.5176431,19.0065542 L49.8262317,18.6292782 L49.4693742,18.4253452 L48.8560253,18.0582659 L48.4434088,17.793153 C47.336233,17.0883232 46.2921078,16.3041085 45.3209055,15.4479236 L44.85253,15.0400577 L44.4064581,14.6117984 C44.2503329,14.4690453 44.1053595,14.3262922 43.9603862,14.1733425 C43.3050635,13.5261606 42.6907136,12.8452746 42.1203395,12.1340126 L41.763482,11.6751634 L41.4177763,11.2163142 L40.9828562,10.5943186 C40.9047936,10.4821555 40.8378828,10.3699923 40.7598202,10.2680258 C40.6817577,10.1660593 40.5590879,9.94173304 40.4475699,9.77858665 L40.1576232,9.28914749 C39.9568908,8.96285471 39.7784621,8.62636528 39.6000333,8.26948256 C39.4216045,7.91259983 39.2543276,7.58630706 39.0870506,7.24981763 L38.9197736,6.87254161 C38.8194075,6.64821532 38.7190413,6.42388904 38.6298269,6.18936611 C38.5406125,5.95484317 38.4848535,5.84268003 38.4179427,5.65914035 L38.2172104,5.11871793 C38.1502996,4.9453749 38.0945406,4.76183521 38.0387816,4.57829552 C37.9830226,4.39475584 37.9161119,4.21121615 37.8603529,4.02767646 L37.7265313,3.5382373 C37.7303725,3.48391187 37.7303725,3.42941633 37.7265313,3.37509091 C37.7265313,3.22214117 37.6484687,3.05899478 37.6150133,2.90604504 L37.4588881,2.31463938 C37.4588881,2.12090305 37.3808256,1.92716671 37.3473702,1.74362703 C37.2358522,1.16241802 37.1577896,0.591405658 37.0908788,0 L0,0 C0.789044585,17.3957029 10.0261047,33.5621963 25.1919108,44.0903114 C25.3368842,44.2024746 25.4930093,44.3044411 25.6491345,44.4064076 C29.5054152,47.0511468 33.6767214,49.2882579 38.0833888,51.0750162 C38.2126569,51.1198063 38.3392233,51.1708619 38.4625499,51.2279659 C43.9939716,53.4280968 49.840846,54.8942374 55.8258988,55.5819352 L56.2273635,55.5819352 C58.7995742,55.8610416 61.3876031,56.0006401 63.9778628,55.9999978 C64.9926764,55.9999978 65.9963382,55.9999978 67,55.9388179 L67,22.1063356 L66.0297936,22.1879088 Z" id="Path"></path>
                    </g>
                </g>
            </g>
        </g>
    </g>
</svg>