<?xml version="1.0" encoding="UTF-8"?>
<svg width="17px" height="24px" viewBox="0 0 17 24" version="1.1" xmlns="http://www.w3.org/2000/svg" xmlns:xlink="http://www.w3.org/1999/xlink">
    <!-- Generator: Sketch 52.6 (67491) - http://www.bohemiancoding.com/sketch -->
    <title>Group 9</title>
    <desc>Created with Sketch.</desc>
    <g id="Page-1" stroke="none" stroke-width="1" fill="none" fill-rule="evenodd">
        <g id="active" transform="translate(-647.000000, -282.000000)" fill="#000000">
            <g id="Group-6" transform="translate(329.000000, 252.000000)">
                <g id="v10-b">
                    <g id="Group-9" transform="translate(318.000000, 30.000000)">
                        <path d="M11.3731583,23.1139856 C11.034991,23.1148248 10.7106802,22.9796953 10.4731583,22.7389856 L10.3831583,22.6489856 C9.93845285,22.2208478 9.8746241,21.5314974 10.2331583,21.0289856 C14.4633049,15.4279452 14.4633049,7.700026 10.2331583,2.09898561 C9.87247167,1.59174199 9.93619725,0.897133109 10.3831583,0.463985606 L10.4731583,0.373985606 C10.7369381,0.112428002 11.1006689,-0.0227220372 11.4712411,0.00313183743 C11.8418133,0.028985712 12.1832535,0.213333729 12.4081583,0.508985606 C17.2908304,7.06473623 17.2908304,16.048235 12.4081583,22.6039856 C12.1568443,22.9202828 11.7770882,23.107409 11.3731583,23.1139856 Z" id="Path"></path>
                        <path d="M6.825,18.33 C6.51959788,18.3211694 6.22724335,18.2042276 6,18 C5.5255437,17.5634566 5.43086442,16.850206 5.775,16.305 C7.42342524,13.4938308 7.42342524,10.0111692 5.775,7.2 C5.44108576,6.69109747 5.50332253,6.01894033 5.925,5.58 L6,5.505 C6.24488858,5.26616269 6.57293169,5.13171879 6.915,5.13 C7.3535671,5.11843672 7.76509218,5.34134614 7.995,5.715 C10.225805,9.40396931 10.225805,14.0260307 7.995,17.715 C7.74533779,18.1169546 7.2976548,18.3522752 6.825,18.33 Z" id="Path"></path>
                        <path d="M1.5,13.035 C1.15923394,13.0350236 0.832638619,12.8986365 0.593093834,12.6562735 C0.353549049,12.4139106 0.220990987,12.0857425 0.225,11.745 C0.217000307,11.4054491 0.353265819,11.0784118 0.6,10.845 C0.840572513,10.6123502 1.16555787,10.4877725 1.5,10.5 C1.824832,10.4837305 2.14262606,10.5983741 2.38226042,10.8182739 C2.62189477,11.0381737 2.76336129,11.3449691 2.775,11.67 L2.775,11.85 C2.74260793,12.5258334 2.17639365,13.0520797 1.5,13.035 Z" id="Path"></path>
                    </g>
                </g>
            </g>
        </g>
    </g>
</svg>