<?xml version="1.0" encoding="UTF-8"?>
<svg width="121px" height="81px" viewBox="0 0 121 81" version="1.1" xmlns="http://www.w3.org/2000/svg" xmlns:xlink="http://www.w3.org/1999/xlink">
    <!-- Generator: Sketch 52.6 (67491) - http://www.bohemiancoding.com/sketch -->
    <title>Group 4</title>
    <desc>Created with Sketch.</desc>
    <g id="Page-1" stroke="none" stroke-width="1" fill="none" fill-rule="evenodd">
        <g id="Desktop" transform="translate(-848.000000, -1312.000000)" fill="#9FA9BA">
            <g id="Group-4" transform="translate(848.000000, 1312.000000)">
                <circle id="Oval" cx="5" cy="5" r="5"></circle>
                <circle id="Oval" cx="36.7142857" cy="5" r="5"></circle>
                <circle id="Oval" cx="5" cy="28" r="5"></circle>
                <circle id="Oval" cx="36.7142857" cy="28" r="5"></circle>
                <circle id="Oval" cx="68.4285714" cy="5" r="5"></circle>
                <circle id="Oval" cx="100.142857" cy="5" r="5"></circle>
                <circle id="Oval" cx="68.4285714" cy="28" r="5"></circle>
                <circle id="Oval" cx="100.142857" cy="28" r="5"></circle>
                <circle id="Oval" cx="5" cy="52" r="5"></circle>
                <circle id="Oval" cx="36.7142857" cy="52" r="5"></circle>
                <circle id="Oval" cx="5" cy="76" r="5"></circle>
                <circle id="Oval" cx="36.7142857" cy="76" r="5"></circle>
                <circle id="Oval" cx="68.4285714" cy="52" r="5"></circle>
                <circle id="Oval" cx="100.142857" cy="52" r="5"></circle>
                <circle id="Oval" cx="68.4285714" cy="76" r="5"></circle>
                <circle id="Oval" cx="100.142857" cy="76" r="5"></circle>
                <circle id="Oval" cx="20.8571429" cy="5" r="5"></circle>
                <circle id="Oval" cx="52.5714286" cy="5" r="5"></circle>
                <circle id="Oval" cx="20.8571429" cy="28" r="5"></circle>
                <circle id="Oval" cx="52.5714286" cy="28" r="5"></circle>
                <circle id="Oval" cx="84.2857143" cy="5" r="5"></circle>
                <circle id="Oval" cx="116" cy="5" r="5"></circle>
                <circle id="Oval" cx="84.2857143" cy="28" r="5"></circle>
                <circle id="Oval" cx="116" cy="28" r="5"></circle>
                <circle id="Oval" cx="20.8571429" cy="52" r="5"></circle>
                <circle id="Oval" cx="52.5714286" cy="52" r="5"></circle>
                <circle id="Oval" cx="20.8571429" cy="76" r="5"></circle>
                <circle id="Oval" cx="52.5714286" cy="76" r="5"></circle>
                <circle id="Oval" cx="84.2857143" cy="52" r="5"></circle>
                <circle id="Oval" cx="116" cy="52" r="5"></circle>
                <circle id="Oval" cx="84.2857143" cy="76" r="5"></circle>
                <circle id="Oval" cx="116" cy="76" r="5"></circle>
            </g>
        </g>
    </g>
</svg>